<svg xmlns="http://www.w3.org/2000/svg"><defs><symbol id="globus" viewBox="0 0 16 16"><path fill-rule="evenodd" d="M8 .01c4.41 0 7.99 3.58 7.99 7.99S12.41 15.99 8 15.99.01 12.41.01 8 3.59.01 8 .01zm2.209 2.4a5.983 5.983 0 00-2.21-.42c-.074 0-.148.002-.222.004l-.337.022-.082.008c-.506.069-.898.462-.898.986a1 1 0 001 1h.55a1 1 0 011 1v.003c.003.058.062.997 1 .997h1a1 1 0 010 2H4.328a2 2 0 01-2-2A5.99 5.99 0 001.99 8c0 1.501.552 2.875 1.464 3.929.537-.224.555-.842.556-.913v-.006a1 1 0 011-1h3a1 1 0 010 2h-.39s-1.004.012-1.004 1c0 .681.698.926 1.104.993.087.004.174.006.26.007.009-.003.015-.004.02 0h.019a6.01 6.01 0 005.183-3h-.637a1 1 0 010-2h1.36a6.012 6.012 0 00-1.51-5.086.997.997 0 01-.405.086h-1a1 1 0 01-.801-1.6z"/></symbol><symbol id="more" viewBox="0 0 16 16"><path fill-rule="evenodd" d="M4.635 8a1.817 1.817 0 01-3.632 0 1.817 1.817 0 013.632 0zm5.191 0a1.826 1.826 0 01-3.65 0 1.826 1.826 0 013.65 0zm5.171 0a1.81 1.81 0 11-3.617-.001A1.81 1.81 0 0114.997 8z"/></symbol><symbol id="arrow_up_big" viewBox="0 0 16 16"><path fill-rule="evenodd" d="M7 4.414V14a1 1 0 002 0V4.414l2.611 2.611a.999.999 0 101.414-1.414L8.719 1.304l-.012-.011a.997.997 0 00-1.414 0l-.012.011-4.306 4.307a.999.999 0 101.414 1.414L7 4.414z"/></symbol><symbol id="close_big" viewBox="0 0 16 16"><path fill-rule="evenodd" d="M7.983 6.455l4.34-4.34a1.105 1.105 0 011.562 1.562l-4.34 4.34 4.34 4.34a1.08 1.08 0 11-1.528 1.528l-4.34-4.34-4.34 4.34a1.105 1.105 0 01-1.562-1.562l4.34-4.34-4.34-4.34a1.08 1.08 0 111.528-1.528l4.34 4.34z"/></symbol><symbol id="close_round" viewBox="0 0 16 16"><path fill-rule="evenodd" d="M8 .012A7.993 7.993 0 0115.988 8 7.993 7.993 0 018 15.988 7.993 7.993 0 01.012 8 7.993 7.993 0 018 .012zm0 6.565L6.185 4.762a1.008 1.008 0 00-1.423 0 1.008 1.008 0 000 1.423L6.577 8 4.769 9.808a1.008 1.008 0 000 1.423 1.008 1.008 0 001.423 0L8 9.423l1.815 1.815c.392.392 1.03.392 1.423 0a1.008 1.008 0 000-1.423L9.423 8l1.808-1.808a1.008 1.008 0 000-1.423 1.008 1.008 0 00-1.423 0L8 6.577z"/></symbol><symbol id="drop_down_small" viewBox="0 0 16 16"><path fill-rule="evenodd" d="M5.171 7.226A.75.75 0 015.75 6h4.5a.75.75 0 01.579 1.226l-2.223 2.966a.75.75 0 01-1.212 0L5.171 7.226z"/></symbol><symbol id="drop_up_small" viewBox="0 0 16 16"><path fill-rule="evenodd" d="M5.171 8.774A.75.75 0 005.75 10h4.5a.75.75 0 00.579-1.226L8.606 5.808a.75.75 0 00-1.212 0L5.171 8.774z"/></symbol></defs></svg>