<?xml version="1.0" encoding="utf-8"?>
<!-- Generator: Adobe Illustrator 17.1.0, SVG Export Plug-In . SVG Version: 6.00 Build 0)  -->
<!DOCTYPE svg PUBLIC "-//W3C//DTD SVG 1.1//EN" "http://www.w3.org/Graphics/SVG/1.1/DTD/svg11.dtd">
<svg version="1.1" id="Layer_1" xmlns="http://www.w3.org/2000/svg" xmlns:xlink="http://www.w3.org/1999/xlink" x="0px" y="0px"
	 viewBox="0 0 50 50" enable-background="new 0 0 50 50" xml:space="preserve">
<path fill-rule="evenodd" clip-rule="evenodd" fill="none" stroke="#4C4C4C" stroke-width="1.5" stroke-miterlimit="10" d="
	M31.4,34.6c0-6.1-3.8-11.3-8.6-11.3c-3.4,0-5.7,1.4-7.6,4.5l0,0c-5.4,0-9.5,3.9-9.5,9.6c0,5.2,3.7,8.4,9.1,8.4c3.1,0,16.4,0,20.1,0
	c5.4,0,8.4-3.5,8.4-8.5c0-4.2-3.5-7.1-7.7-7.4c-1.3-0.1-3,0-4.6,1.3"/>
<path fill="#FFEA5E" d="M22.8,20.6c4.1,0,7.8,2.7,9.8,6.9c0.7-0.2,1.5-0.3,2.3-0.3c0.3,0,0.6,0,0.8,0c1,0.1,1.9,0.2,2.8,0.5
	c0.7-0.3,1.3-0.6,2-1c2-1.2,3.6-3,4.6-5.2c0.2-0.4,0.1-0.8-0.2-1.1c-0.3-0.3-0.8-0.2-1.1,0c-1.2,1-2.5,1.6-4,1.9c-5,1-10-2.2-11-7.2
	c-0.8-4.2,1.3-8.4,5.3-10.2c0.4-0.2,0.6-0.6,0.5-1c-0.1-0.4-0.4-0.7-0.9-0.7c-2.4,0-4.8,0.6-6.8,1.9C24.1,7,22,9.8,21.2,13.1
	c-0.6,2.5-0.4,5.1,0.5,7.5C22.1,20.6,22.4,20.6,22.8,20.6z"/>
</svg>
