<svg xmlns="http://www.w3.org/2000/svg" width="592" height="471"><path fill-rule="evenodd" d="M140.616 1.761c72.231 0 171.863-.01 299.355-.01 8.912 1.03 12.312 1.882 20.568 3.73 0 1.131-.006 1.375.198 1.375.201 0 .218-.116.227-1.235 3.57.642 12.581 2.55 15.458 3.362 1.635.462 2.391 1.237 2.391 1.884 0 .695-.904 1.593-2.33 1.922-3.604.832-9.494 2.086-15.53 3.295 0-.981-.005-1.301-.199-1.301-.212 0-.241.405-.244 1.389a635.99 635.99 0 0 0-16.049 3.116c29.85 0 85.329.1 115.179.1 7.695 0 16.869 2.438 22.255 7.298 4.761 4.295 8.061 13.059 8.061 19.559 0 60.294.093 130.434.093 190.568 0 74.33-.026 192.574-.026 205.23 0 6.157-1.969 14.085-7.1 19.381-4.727 4.879-12.797 8.22-22.65 8.22l-274.058-.002-253.629.001c-7.527 0-17.197-1.059-23.291-8.046-5.883-6.746-6.977-14.997-6.977-21.897 0-21.735.01-113.811.01-192.093 0-78.865-.065-174.556-.065-176.588-.338 0-1.028.011-1.275.011-.01-1.311-.001-22.174-.001-25.225.33-.012.916.016 1.302-.001 0-6.074 2.792-13.622 6.566-17.769 5.169-5.679 13.29-8.701 21.721-8.701 4.216 0 9.698-.051 12.16-.051-.007-.319.003-1.06.003-1.307 6.665 0 14.628.02 21.294.02 0 .296.006.914.006 1.286 1.055.016 2.757-.001 4.333-.001.009-.423.003-.961.003-1.279l20.892.003c0 .473-.006.738-.006 1.286 15.359 0 31.828-.01 47.187-.01-.724-.193-1.85-.981-2.762-1.676-1.558-1.185-3.058-3.695-3.058-7.155 0-3.349 1.491-5.087 2.89-6.389 1.077-1.003 4.191-2.3 7.098-2.3zM29.387 38.488h533.718c4.353 0 7.901 3.51 7.901 7.877V442.6c0 4.358-3.54 7.905-7.905 7.905H29.39c-4.596.004-7.901-3.788-7.901-7.907V46.37c0-4.407 3.564-7.882 7.898-7.882z"/></svg>