<svg width="36" height="36" fill="none" xmlns="http://www.w3.org/2000/svg"><mask id="a" maskUnits="userSpaceOnUse" x="-2" y="-3" width="18" height="19" fill="#000"><path fill="#fff" d="M-2-3h18v19H-2z"/><path fill-rule="evenodd" clip-rule="evenodd" d="M1.707.293A1 1 0 0 0 .293 1.707l4.95 4.95-4.95 4.95a1 1 0 1 0 1.414 1.414l4.95-4.95 4.95 4.95a1 1 0 0 0 1.414-1.414l-4.95-4.95 4.95-4.95A1 1 0 0 0 11.607.293l-4.95 4.95-4.95-4.95z"/></mask><path fill-rule="evenodd" clip-rule="evenodd" d="M8.243 5.414a2 2 0 0 0-2.829 2.829l9.9 9.9-9.9 9.899a2 2 0 1 0 2.829 2.828l9.9-9.9 9.899 9.9a2 2 0 0 0 2.828-2.828l-9.9-9.9 9.9-9.9a2 2 0 0 0-2.828-2.828l-9.9 9.9-9.9-9.9z" fill="#fff"/><path d="M.293.293l-1.414-1.414L.293.293zm1.414 0L.293 1.707 1.707.293zM.293 1.707l-1.414 1.414L.293 1.707zm4.95 4.95L6.657 8.07 8.07 6.657 6.657 5.243 5.243 6.657zm-4.95 4.95l1.414 1.414-1.414-1.414zm0 1.414l-1.414 1.414 1.414-1.414zm1.414 0L.293 11.607l1.414 1.414zm4.95-4.95L8.07 6.657 6.657 5.243 5.243 6.657 6.657 8.07zm4.95 4.95l1.414-1.414-1.414 1.414zm1.414-1.414l1.414-1.415-1.414 1.415zm-4.95-4.95L6.657 5.243 5.243 6.657 6.657 8.07 8.07 6.657zm4.95-6.364l1.414-1.414L13.021.293zm-1.414 0l1.414 1.414L11.607.293zm-4.95 4.95L5.243 6.657 6.657 8.07 8.07 6.657 6.657 5.243zm-4.95-3.536a1 1 0 0 1-1.414 0L3.12-1.12a3 3 0 0 0-4.242 0l2.828 2.828zm0-1.414a1 1 0 0 1 0 1.414L-1.12-1.12a3 3 0 0 0 0 4.242L1.707.293zm4.95 4.95L1.707.293-1.12 3.12l4.95 4.95 2.828-2.828zm-2.829 0l-4.95 4.95 2.83 2.828 4.949-4.95-2.829-2.828zm-4.95 4.95a3 3 0 0 0 0 4.242l2.83-2.828a1 1 0 0 1 0 1.414l-2.83-2.829zm0 4.242a3 3 0 0 0 4.243 0L.293 11.607a1 1 0 0 1 1.414 0l-2.828 2.828zm4.243 0l4.95-4.95-2.828-2.828-4.95 4.95 2.828 2.828zm9.9-2.828l-4.95-4.95-2.828 2.828 4.95 4.95 2.828-2.828zm-1.414 0a1 1 0 0 1 1.414 0l-2.829 2.828a3 3 0 0 0 4.243 0l-2.828-2.828zm0 1.414a1 1 0 0 1 0-1.414l2.828 2.828a3 3 0 0 0 0-4.243l-2.828 2.829zm-4.95-4.95l4.95 4.95 2.828-2.829-4.95-4.95-2.828 2.83zm2.828 0l4.95-4.95L11.607.293l-4.95 4.95L9.485 8.07zm4.95-4.95a3 3 0 0 0 0-4.242l-2.828 2.828a1 1 0 0 1 0-1.414l2.828 2.828zm0-4.242a3 3 0 0 0-4.243 0l2.829 2.828a1 1 0 0 1-1.414 0l2.828-2.828zm-4.243 0l-4.95 4.95 2.83 2.828 4.949-4.95-2.829-2.828zm-9.9 2.828l4.95 4.95 2.83-2.829-4.95-4.95-2.83 2.83z" transform="matrix(2 0 0 2 4.828 4.828)" fill="#000" fill-opacity=".2" mask="url(#a)"/></svg>