<svg width="16" height="16" viewBox="0 0 16 16" fill="none" xmlns="http://www.w3.org/2000/svg">
<path fill-rule="evenodd" clip-rule="evenodd" d="M14.966 7.03723C14.8053 7.03723 14.6535 7.06834 14.5178 7.12344C14.3191 7.43889 13.8145 7.66872 13.2125 7.69211C13.1582 6.35022 12.5973 5.139 11.7155 4.24449C12.1124 3.93387 12.5468 3.7908 12.8664 3.85567C13.0044 3.79877 13.137 3.71196 13.2531 3.59585C13.6568 3.19211 13.7089 2.58953 13.3692 2.24994C13.0296 1.91035 12.427 1.96235 12.0233 2.36608C11.9097 2.4797 11.8243 2.60913 11.7673 2.74399C11.841 3.06866 11.6941 3.51747 11.3706 3.92469C10.4866 3.17567 9.3501 2.7157 8.10667 2.69072C8.14903 2.14023 8.3648 1.68423 8.65653 1.49101C8.71391 1.35319 8.74629 1.19803 8.74629 1.03382C8.74629 0.462869 8.35695 0 7.87672 0C7.39648 0 7.00718 0.462869 7.00718 1.03382C7.00718 1.19452 7.03828 1.34643 7.09338 1.48206C7.39358 1.67122 7.61634 2.13739 7.6573 2.70086C6.3133 2.78802 5.10793 3.38379 4.23208 4.29805C3.7971 3.85179 3.58483 3.31585 3.66133 2.9393C3.6044 2.80127 3.51758 2.66869 3.4015 2.55258C2.99776 2.14884 2.39518 2.09684 2.05559 2.43643C1.716 2.77602 1.768 3.37861 2.17173 3.78234C2.28536 3.89596 2.41478 3.98139 2.54965 4.03834C2.93237 3.9515 3.48764 4.17121 3.94391 4.62541C3.26173 5.46758 2.83663 6.52631 2.7877 7.68251C2.19414 7.65943 1.69544 7.4357 1.49098 7.127C1.35313 7.06964 1.19803 7.03726 1.0338 7.03726C0.462869 7.03726 0 7.4266 0 7.90682C0 8.38705 0.462869 8.77638 1.0338 8.77638C1.19452 8.77638 1.3464 8.7453 1.48206 8.69021C1.68078 8.37471 2.18542 8.14491 2.78736 8.12145C2.83608 9.32419 3.29176 10.4219 4.02063 11.2806C3.99501 11.3086 3.96857 11.3364 3.94121 11.3637C3.49031 11.8146 2.94179 12.0358 2.55849 11.9579C2.42046 12.0149 2.28788 12.1016 2.17173 12.2178C1.76802 12.6215 1.71602 13.2241 2.05562 13.5637C2.39522 13.9033 2.99779 13.8513 3.4015 13.4475C3.51515 13.3339 3.60054 13.2045 3.65753 13.0696C3.57037 12.6858 3.79167 12.1282 4.24869 11.6712C4.27179 11.6481 4.2953 11.6259 4.31892 11.604C5.18616 12.4675 6.3555 13.0276 7.65455 13.1125C7.65425 13.7496 7.42283 14.2932 7.09698 14.509C7.03961 14.6469 7.00723 14.802 7.00723 14.9662C7.00723 15.5371 7.39656 16 7.8768 16C8.35703 16 8.74636 15.5371 8.74636 14.9662C8.74636 14.8055 8.71528 14.6536 8.66019 14.5179C8.32914 14.3095 8.09242 13.7642 8.08952 13.123C9.29311 13.1028 10.3973 12.675 11.2705 11.9717C11.6527 12.3999 11.8354 12.8938 11.7636 13.2472C11.8205 13.3853 11.9073 13.5179 12.0235 13.634C12.4272 14.0377 13.0297 14.0897 13.3694 13.7502C13.709 13.4105 13.6569 12.808 13.2532 12.4043C13.1395 12.2906 13.0101 12.2052 12.8753 12.1483C12.5269 12.2274 12.0354 12.0523 11.6058 11.6776C12.5485 10.7758 13.1534 9.52419 13.2123 8.1312C13.8059 8.15421 14.3045 8.37798 14.509 8.68663C14.6468 8.744 14.802 8.77638 14.9662 8.77638C15.5371 8.77638 16 8.38705 16 7.90682C15.9998 7.42654 15.537 7.03723 14.966 7.03723ZM11 6.5C11 7.32843 10.3285 8 9.50004 8C8.67154 8 8 7.32843 8 6.5C8 5.67157 8.67154 5 9.50004 5C10.3285 5 11 5.67157 11 6.5ZM6 10C6.55228 10 7 9.55231 7 9C7 8.4477 6.55228 8 6 8C5.44772 8 5 8.4477 5 9C5 9.55231 5.44772 10 6 10Z" fill="#333333"/>
</svg>

