<svg xmlns="http://www.w3.org/2000/svg" width="500" height="260"><path d="M361 42c-19.4-22.1-71.5-20.5-111-15-39.6 5.5-52.7 11.2-83.4 33.3-30.6 22-58 56-53.5 85.7 4.4 29.5 40.4 54.7 71.1 72.3s55.9 27.5 80.5 27 48.8-11.7 68.2-29.2c19.4-17.6 34.2-41.7 44.6-76.2S380.5 64 361 42z" fill="rgba(85, 166, 214, 0.07)"/><circle cx="85.5" cy="203.5" r="3.5" fill="none" stroke="#bcc1c5" stroke-miterlimit="10" stroke-width="1.5"/><circle cx="38.5" cy="119.5" r="3.5" fill="#bcc1c5"/><path fill="none" stroke="#bcc1c5" stroke-miterlimit="10" stroke-width="1.5" d="M40 178v13l9-7-9-6zM58 71v7.9l5.5-4.2L58 71z"/><g fill="none" stroke="#bcc1c5" stroke-miterlimit="10" stroke-width="1.5"><path d="M34 42v8M38 46h-8"/></g><path d="M456 49.9a3.6 3.6 0 1 1 3.6 3.6 3.6 3.6 0 0 1-3.6-3.6zM425 153.9a3.6 3.6 0 1 1 3.6 3.6 3.6 3.6 0 0 1-3.6-3.6z" fill="#bcc1c5"/><path fill="none" stroke="#bcc1c5" stroke-miterlimit="10" stroke-width="1.5" d="M462 196.4l7-5-7-5v10zM429 74h10v10"/><circle cx="418" cy="222" r="4" fill="none" stroke="#bcc1c5" stroke-miterlimit="10" stroke-width="1.5"/><circle cx="418" cy="28" r="4" fill="none" stroke="#bcc1c5" stroke-miterlimit="10" stroke-width="1.5"/><circle cx="451" cy="109" r="8" fill="none" stroke="#bcc1c5" stroke-miterlimit="10" stroke-width="1.5"/><circle cx="80" cy="145" r="8" fill="none" stroke="#bcc1c5" stroke-miterlimit="10" stroke-width="1.5"/><g><rect x="127.5" y="86.5" width="258" height="104" rx="4" fill="#fff" stroke="#bbc0c4" stroke-miterlimit="10"/><rect x="139" y="99" width="100" height="34" rx="3" fill="#e1ecf4"/><rect x="147" y="109" width="64" height="14" rx="2" fill="#39739d"/><rect x="250" y="99" width="110" height="34" rx="3" fill="#e1ecf4"/><rect x="260" y="109" width="72" height="14" rx="2" fill="#39739d"/><rect x="139" y="143" width="174" height="34" rx="3" fill="#e1ecf4"/><rect x="147" y="153" width="138" height="14" rx="2" fill="#39739d"/><path d="M230.5 111.4l-1.4-1.4-4.6 4.6-4.6-4.6-1.4 1.4 4.6 4.6-4.6 4.6 1.4 1.4 4.6-4.6 4.6 4.6 1.4-1.4-4.6-4.6zM351.5 111.4l-1.4-1.4-4.6 4.6-4.6-4.6-1.4 1.4 4.6 4.6-4.6 4.6 1.4 1.4 4.6-4.6 4.6 4.6 1.4-1.4-4.6-4.6zM305.5 155.4l-1.4-1.4-4.6 4.6-4.6-4.6-1.4 1.4 4.6 4.6-4.6 4.6 1.4 1.4 4.6-4.6 4.6 4.6 1.4-1.4-4.6-4.6z" fill="#39739d"/><g fill="#9199a1"><path d="M137.4 62.2v-1.8h8.7v1.8h-3.3V71h-2.2v-9zM150.6 71a3 3 0 0 1-.2-.6 2.8 2.8 0 0 1-.8.6 2.6 2.6 0 0 1-1.2.2 2.8 2.8 0 0 1-2-.7 2.2 2.2 0 0 1-.7-1.7 2.3 2.3 0 0 1 .9-1.9 4.6 4.6 0 0 1 2.7-.7h1v-.4a1.3 1.3 0 0 0-.3-1 1.1 1.1 0 0 0-.9-.2q-1.1 0-1.1 1h-2.1a2.2 2.2 0 0 1 .9-1.9 3.8 3.8 0 0 1 2.4-.7 3.6 3.6 0 0 1 2.3.7 2.5 2.5 0 0 1 .9 2v3.4a6 6 0 0 0 0 1.1 2.7 2.7 0 0 0 .3.7v.2zm-1.8-1.4a1.7 1.7 0 0 0 1-.2 1.5 1.5 0 0 0 .5-.6v-1.3h-.9a1.8 1.8 0 0 0-1.2.3 1.1 1.1 0 0 0-.4.9.9.9 0 0 0 .3.6 1 1 0 0 0 .7.3zM161 70.8a3 3 0 0 1-1 2.5 4.2 4.2 0 0 1-2.8.9 4.8 4.8 0 0 1-1.6-.3 3 3 0 0 1-1.4-1l1-1.2a2.5 2.5 0 0 0 1.9.8 1.8 1.8 0 0 0 1.3-.4 1.7 1.7 0 0 0 .4-1.3v-.4a2.5 2.5 0 0 1-1.9.8 2.8 2.8 0 0 1-2.3-1.1 4.6 4.6 0 0 1-.9-2.9v-.1a4.7 4.7 0 0 1 .9-3 3 3 0 0 1 3.5-.9 2.4 2.4 0 0 1 .9.7V63h2zm-5.2-3.6a3.2 3.2 0 0 0 .4 1.6 1.3 1.3 0 0 0 1.3.7 1.5 1.5 0 0 0 1.3-.7v-3.4a1.5 1.5 0 0 0-1.3-.7 1.3 1.3 0 0 0-1.3.7 3.2 3.2 0 0 0-.4 1.7zM166.9 68.9a.7.7 0 0 0-.3-.6 3.8 3.8 0 0 0-1.3-.4 5.5 5.5 0 0 1-2-.9 1.8 1.8 0 0 1-.9-1.5 2.2 2.2 0 0 1 .9-1.8 3.4 3.4 0 0 1 2.3-.7 3.7 3.7 0 0 1 2.4.7 2.3 2.3 0 0 1 1 1.9h-2.2a1 1 0 0 0-.3-.8 1.2 1.2 0 0 0-.9-.3 1.3 1.3 0 0 0-.8.2.8.8 0 0 0-.3.7.7.7 0 0 0 .3.5 3.4 3.4 0 0 0 1.2.4 6.4 6.4 0 0 1 2.1.8 1.9 1.9 0 0 1 .8 1.7 2.1 2.1 0 0 1-.9 1.7 4 4 0 0 1-2.4.7 3.5 3.5 0 0 1-2.5-.8 2.5 2.5 0 0 1-1-1.9h2.1a1 1 0 0 0 .5 1 1.8 1.8 0 0 0 1 .2q1.2 0 1.2-.8z"/></g></g></svg>