<svg id="Layer_2" data-name="Layer 2" xmlns="http://www.w3.org/2000/svg" viewBox="0 0 51 51"><defs><style>.cls-1{fill:none;stroke:#0c0d0e;stroke-miterlimit:10}</style></defs><path class="cls-1" d="M5.5 9v3M17.5 3.5h19v15h-19zM21.5 33v6M35.5 27v1M28.5 27v1M33.5 33v6M37.5 46.5h-9v-2.82a4.6 4.6 0 0 1 3.57-4.57 4.5 4.5 0 0 1 5.43 4.4zM25.5 46.5h-9v-2.82a4.6 4.6 0 0 1 3.57-4.57 4.5 4.5 0 0 1 5.43 4.4zM19.5 26.5h5v3h-5zM43.5 36v-3M46.5 36v-3M45.5 28v-2.51a3 3 0 0 0-3.06-3H39M45 28.26a3.28 3.28 0 0 1 3.5 3v2.24h-7v-2.24a3.28 3.28 0 0 1 3.5-3zM8.5 9v3M7.5 17v2.51a3 3 0 0 0 3.06 3H15M7 16.74a3.28 3.28 0 0 1-3.5-3V11.5h7v2.24a3.28 3.28 0 0 1-3.5 3zM22.5 21v-3M31.5 18v3M17.5 14.5h-1.61a1.39 1.39 0 0 1-1.39-1.39v-3.2a1.41 1.41 0 0 1 1.41-1.41h1.59zM38.09 14.5H36.5v-6h1.61a1.39 1.39 0 0 1 1.39 1.39v3.2a1.41 1.41 0 0 1-1.41 1.41zM35.5 45v1M31.5 45v1M22.5 45v1M19.5 45v1M28.5 15v1M30.5 14v1M26.5 15v1M24.5 15v1M22.5 14v1"/><ellipse class="cls-1" cx="30.8" cy="9.26" rx="2.3" ry="2.24"/><ellipse class="cls-1" cx="23.15" cy="9.26" rx="2.3" ry="2.24"/><path class="cls-1" d="M14.5 21.5h24v12h-24z"/></svg>