<svg xmlns="http://www.w3.org/2000/svg" xmlns:xlink="http://www.w3.org/1999/xlink" viewBox="0 0 512 500"><style>:root&gt;svg{display:none}:root&gt;svg:target{display:block}</style><svg xmlns="http://www.w3.org/2000/svg" id="award" preserveAspectRatio="none" viewBox="0 0 24 24"><defs><linearGradient id="aa" x1="104.45" x2="104.45" y1="248.45" y2="270.45" gradientUnits="userSpaceOnUse"><stop offset="0%" stop-color="#FFCD38"/><stop offset="100%" stop-color="#FFA300"/></linearGradient><path id="ab" fill="url(#aa)" d="M112.55 257.7q1.9-2.6 1.9-6.5h-3.25l.05-2.75h-13.5l.05 2.75h-3.3q0 4 1.9 6.6 1.85 2.45 4.75 2.85l1.25.85h-.7v1.4h1.4v3.45h-1.4v1.35h-1.35v2.75h8.2v-2.75h-1.4v-1.35h-1.35v-3.45h1.35v-1.4h-.65q1.1-.6 1.35-.95 2.85-.35 4.7-2.85m-3.55 1.05q1.65-2.9 2.05-6.15h2q-.45 4.3-4.05 6.15m-9.05 0q-3.65-1.6-4.1-6.15h2.05q.4 3.25 2.05 6.15z"/></defs><use transform="translate(-92.45 -247.45)" xlink:href="#ab"/></svg><svg xmlns="http://www.w3.org/2000/svg" id="custom_text" viewBox="0 0 31 31"><title>Custom</title><defs><path id="ba" d="M0 0h31v31H0z"/></defs><g fill="none" fill-rule="evenodd"><circle cx="15.5" cy="15.5" r="12.5" fill="#FC0"/><g opacity=".702"><mask id="bb" fill="#fff"><use xlink:href="#ba"/></mask><path fill="#FFF" d="M28.082 25.834h-1.914a.335.335 0 0 0-.335.334v1.914H5.166v-1.914a.335.335 0 0 0-.334-.334H2.918V5.166h1.914c.184 0 .334-.15.334-.334V2.978h20.667v1.854c0 .184.15.334.335.334h1.914v20.668zm2.249 4.497h-3.828v-3.829h3.828v3.829zm-25.834 0H.669v-3.828h3.828v3.827zM.669 4.497h3.828V.67H.669v3.828zm25.834 0h3.828V.67h-3.828v3.828zm4.162.67c.185 0 .335-.15.335-.335V.335A.335.335 0 0 0 30.665 0h-4.497a.335.335 0 0 0-.335.335v1.854H5.166V.335A.335.335 0 0 0 4.832 0H.335A.335.335 0 0 0 0 .335v4.497c0 .184.15.334.335.334h1.914v20.668H.335a.335.335 0 0 0-.335.334v4.497c0 .185.15.335.335.335h4.497c.184 0 .334-.15.334-.335v-1.914h20.667v1.914c0 .185.15.335.335.335h4.497c.185 0 .335-.15.335-.335v-4.497a.335.335 0 0 0-.335-.334h-1.914V5.166h1.914z" mask="url(#bb)"/></g><path fill="#441F00" d="M9 10v2.009h5.085V23h2.83V12.009H22V10z"/></g></svg><svg xmlns="http://www.w3.org/2000/svg" id="emotion" preserveAspectRatio="none" viewBox="0 0 24 24"><defs><linearGradient id="ca" x1="104.45" x2="104.45" y1="208.45" y2="228.45" gradientUnits="userSpaceOnUse"><stop offset="0%" stop-color="#FFCD38"/><stop offset="100%" stop-color="#FFA300"/></linearGradient><path id="cb" fill="url(#ca)" d="M114.45 218.45q0-4.15-2.9-7.05-2.95-2.95-7.1-2.95-4.1 0-7.05 2.95-2.9 2.9-2.9 7.05t2.9 7.1q2.95 2.95 7.05 2.95 4.15 0 7.1-2.95 2.9-2.95 2.9-7.1m-7.3-4.65q.55 0 .9.8.4.75.4 1.85t-.4 1.9q-.35.8-.9.8t-.95-.8q-.4-.75-.4-1.9 0-1.1.4-1.85.4-.8.95-.8m-4.4.8q.4.75.4 1.85 0 1.15-.4 1.9-.4.8-.95.8-.55 0-.95-.8-.35-.75-.35-1.9 0-1.1.35-1.85.4-.8.95-.8.55 0 .95.8m6.15 7.45q.25 0 .25.1 0 .8-1.2 1.5-1.45.85-3.5.85t-3.45-.85q-1.2-.7-1.2-1.5 0-.25.4-.25 1 0 3.6 1.25h1.35l1.55-.55q1.65-.55 2.2-.55z"/></defs><use transform="translate(-92.45 -206.45)" xlink:href="#cb"/></svg><svg xmlns="http://www.w3.org/2000/svg" id="message" preserveAspectRatio="none" viewBox="0 0 24 24"><defs><linearGradient id="da" x1="104.45" x2="104.45" y1="290.5" y2="306.5" gradientUnits="userSpaceOnUse"><stop offset="0%" stop-color="#FFCD38"/><stop offset="100%" stop-color="#FFA300"/></linearGradient><path id="db" fill="url(#da)" d="M93.45 302.3l6.6-3.5-6.6-3.45v6.95m11-1.15l-3-1.6-8 4.25v2.7h22v-2.7l-7.95-4.25-3.05 1.6m4.4-2.35l6.6 3.5v-6.95l-6.6 3.45m6.6-8.3h-22v3.3l11 5.8 11-5.8v-3.3z"/></defs><use transform="translate(-92.45 -286.5)" xlink:href="#db"/></svg><svg xmlns="http://www.w3.org/2000/svg" id="star" viewBox="0 0 512 488.3"><style>.est0{fill:url(#eSVGID_1_)}</style><linearGradient id="eSVGID_1_" x1="255.993" x2="255.993" y1="407.6" y2="896.1" gradientTransform="matrix(1 0 0 -1 0 896)" gradientUnits="userSpaceOnUse"><stop offset="0" stop-color="#f98706"/><stop offset="1" stop-color="#fc0"/></linearGradient><path d="M504 203.9l-111.7 109 26.5 153.9c1 6.8.4 12.1-1.9 15.9s-5.7 5.7-10.5 5.7c-3.5 0-7.6-1.2-12.3-3.7L256 412l-138.2 72.6c-4.7 2.5-8.8 3.7-12.3 3.7-4.7 0-8.2-1.9-10.5-5.7-2.3-3.8-2.9-9.1-1.8-15.9l26.5-153.9-112-108.9c-6.6-6.6-8.9-12.7-7.1-18.3S8 176.4 17.2 175l154.5-22.5 69.2-140C245 4.1 250.1-.1 256-.1c5.7 0 10.8 4.2 15.1 12.6l69.2 140L494.8 175c9.2 1.4 14.8 5 16.6 10.6 1.8 5.7-.6 11.8-7.4 18.3z" class="est0"/><title>star</title></svg><svg xmlns="http://www.w3.org/2000/svg" id="star_tilted_half" viewBox="0 0 500 500"><linearGradient id="fa" x2="500" y1="250" y2="250" gradientUnits="userSpaceOnUse"><stop offset="0" stop-color="#fc0"/><stop offset=".5" stop-color="#fc0" stop-opacity="0"/></linearGradient><path fill="url(#fa)" d="M337.2 174.2L313.3 0 184 117.9 4.3 78.4l82.9 159.2L0 387.4 180.6 368l125.8 132L335 328.7l165-68.2-162.8-86.3z"/></svg><svg xmlns="http://www.w3.org/2000/svg" id="vip" data-name="Layer 1" viewBox="0 0 300 160.27"><defs><style>.gcls-1{fill:url(#glinear-gradient)}.gcls-2{fill:url(#glinear-gradient-2)}</style><linearGradient id="glinear-gradient" x1="231.37" x2="231.37" y1="42.35" y2="75.32" gradientUnits="userSpaceOnUse"><stop offset="0" stop-color="#fc0"/><stop offset="1" stop-color="#f98706"/></linearGradient><linearGradient id="glinear-gradient-2" x1="150" x2="150" y1="-.93" y2="161.82" xlink:href="#glinear-gradient"/></defs><title>Artboard 1 copy 7</title><path d="M238.78 43.34q-4.14-.78-16.61-.78H211V75h12.63q13.65 0 18.25-1.79a15 15 0 0 0 9.82-14.5 14.76 14.76 0 0 0-3.66-10.28 16 16 0 0 0-9.26-5.09z" class="gcls-1"/><path d="M281.3.13H18.7A18.7 18.7 0 0 0 0 18.83v122.61a18.69 18.69 0 0 0 18.7 18.69h262.6a18.69 18.69 0 0 0 18.7-18.69V18.83A18.7 18.7 0 0 0 281.3.13zM90.89 137.48H66.25L25.4 23.23h25l28.93 84.56 28-84.56h24.48zm75.07 0h-23.07V23.23H166zm105.72-61.41A31.42 31.42 0 0 1 262 87.33a33.47 33.47 0 0 1-12 5.42q-8.26 1.64-23.93 1.63H211v43.1h-23V23.23h37q21 0 27.44 1.72a30 30 0 0 1 16.45 11.18q6.63 8.61 6.63 22.25-.02 10.52-3.84 17.69z" class="gcls-2"/></svg></svg>