<?xml version="1.0" encoding="utf-8"?>
<!-- Generator: Adobe Illustrator 16.0.0, SVG Export Plug-In . SVG Version: 6.00 Build 0)  -->
<!DOCTYPE svg PUBLIC "-//W3C//DTD SVG 1.1//EN" "http://www.w3.org/Graphics/SVG/1.1/DTD/svg11.dtd">
<svg version="1.1" id="Calque_1" xmlns="http://www.w3.org/2000/svg" xmlns:xlink="http://www.w3.org/1999/xlink" x="0px" y="0px"
	 width="450.375px" height="109.454px" viewBox="72.266 366.466 450.375 109.454"
	 enable-background="new 72.266 366.466 450.375 109.454" xml:space="preserve">
<g id="Straight">
	<path fill="#DE2600" d="M120.202,409.173l12.162-24.889h19.798l-21.142,36.555l22.768,37.191H133l-12.586-25.385l-12.586,25.385
		H88.03l21.707-37.191l-21.141-36.555h19.585L120.202,409.173z"/>
	<path fill="#FFFFFF" d="M185.535,438.021l0.495,2.688h0.283l0.495-2.477l14.636-53.947h17.96l-23.899,73.816H176.98l-23.828-73.816
		h17.959L185.535,438.021z"/>
	<path fill="#FFFFFF" d="M242.383,458.031h-17.111v-73.746h17.111V458.031z"/>
	<path fill="#FFFFFF" d="M254.049,458.031v-73.746h26.657c8.696,0,15.979,2.826,21.778,8.482c5.868,5.656,8.768,12.939,8.768,21.777
		v13.295c0,8.905-2.896,16.121-8.768,21.774c-5.869,5.656-13.083,8.484-21.778,8.484h-26.657V458.031z M271.23,397.435v47.443h8.345
		c4.596,0,8.131-1.558,10.677-4.666c2.546-3.111,3.818-7.283,3.818-12.373v-13.365c0-5.091-1.271-9.189-3.818-12.303
		c-2.546-3.111-6.152-4.667-10.677-4.667h-8.345V397.435z"/>
	<path fill="#FFFFFF" d="M366.968,426.495h-28.92v18.386h34.082v13.149h-51.264v-73.746h51.401v13.15h-34.223v15.838h28.92v13.223
		H366.968z"/>
	<path fill="#FFFFFF" d="M439.867,427.767c0,9.121-2.898,16.547-8.627,22.486c-5.728,5.866-13.293,8.838-22.556,8.838
		c-9.334,0-16.969-2.972-22.768-8.838c-5.799-5.869-8.697-13.365-8.697-22.486v-13.293c0-9.051,2.898-16.545,8.697-22.482
		c5.799-5.938,13.363-8.84,22.697-8.84c9.262,0,16.758,2.971,22.625,8.84c5.799,5.938,8.694,13.361,8.694,22.482v13.293H439.867z
		 M422.755,414.404c0-5.303-1.271-9.614-3.746-12.938c-2.477-3.396-6.012-5.091-10.537-5.091c-4.596,0-8.2,1.694-10.604,5.02
		c-2.476,3.396-3.676,7.707-3.676,13.012v13.363c0,5.303,1.271,9.688,3.745,13.08c2.476,3.392,6.013,5.092,10.679,5.092
		c4.524,0,7.99-1.697,10.465-5.092c2.475-3.396,3.676-7.707,3.676-13.08L422.755,414.404L422.755,414.404z"/>
	<path fill="#FFFFFF" d="M487.947,438.515c0-2.615-0.849-4.596-2.615-6.01c-1.697-1.414-4.809-2.898-9.264-4.525
		c-9.332-2.971-16.263-6.08-20.718-9.476c-4.524-3.395-6.717-8.202-6.717-14.565c0-6.149,2.688-11.172,8.062-14.988
		c5.373-3.817,12.162-5.729,20.362-5.729c8.203,0,14.851,2.121,20.082,6.293c5.232,4.172,7.777,9.615,7.564,16.262l-0.07,0.283
		h-16.615c0-2.97-0.989-5.303-2.971-7.142c-1.979-1.838-4.736-2.757-8.272-2.757c-3.464,0-6.15,0.776-8.132,2.262
		c-1.979,1.484-2.969,3.395-2.969,5.657c0,2.189,0.99,3.89,2.969,5.161c1.98,1.271,5.656,2.897,11.103,4.879
		c8.414,2.475,14.707,5.586,18.949,9.19c4.241,3.678,6.362,8.697,6.362,15.063c0,6.505-2.545,11.597-7.563,15.201
		c-5.021,3.679-11.738,5.517-20.082,5.517c-8.414,0-15.625-2.121-21.707-6.293c-6.08-4.172-9.121-10.252-8.908-18.172l0.07-0.283
		h16.688c0,4.242,1.131,7.283,3.465,9.121c2.265,1.838,5.8,2.758,10.466,2.758c3.534,0,6.223-0.707,7.92-2.121
		C487.029,442.616,487.947,440.779,487.947,438.515z"/>
</g>
</svg>
