<svg xmlns="http://www.w3.org/2000/svg" width="500" height="260"><path d="M401.2 43.3c-15.6-17-59.7-19.3-100-20.5-40.3-1.3-76.8-1.4-117 9.8-40 11.3-83.8 34.2-91.6 64.2s20.3 67.1 56.5 94.2A234 234 0 0 0 273 237.5c43.3 2.5 85.4-9.3 105-30.7s16.4-52.2 21.3-83.5 17.6-63 2-80z" fill="rgba(85, 166, 214, 0.07)"/><path d="M419 35.2a3.6 3.6 0 1 1 3.6 3.6 3.6 3.6 0 0 1-3.6-3.6zM426 107.2a3.6 3.6 0 1 1 3.6 3.6 3.6 3.6 0 0 1-3.6-3.6z" fill="#bcc1c5"/><circle cx="62" cy="146" r="8" fill="none" stroke="#bcc1c5" stroke-miterlimit="10" stroke-width="1.5"/><circle cx="85.5" cy="203.5" r="3.5" fill="none" stroke="#bcc1c5" stroke-miterlimit="10" stroke-width="1.5"/><circle cx="38.5" cy="119.5" r="3.5" fill="#bcc1c5"/><path fill="none" stroke="#bcc1c5" stroke-miterlimit="10" stroke-width="1.5" d="M40 178v13l9-7-9-6zM58 71v7.9l5.5-4.2L58 71zM444 59h10v10"/><circle cx="456" cy="119" r="8" fill="none" stroke="#bcc1c5" stroke-miterlimit="10" stroke-width="1.5"/><circle cx="427" cy="195" r="6" fill="none" stroke="#bcc1c5" stroke-miterlimit="10" stroke-width="1.5"/><path fill="none" stroke="#bcc1c5" stroke-miterlimit="10" stroke-width="1.5" d="M34 42v8M38 46h-8"/><g fill="none" stroke="#bcc1c5" stroke-miterlimit="10" stroke-width="1.5"><path d="M460 210v8M464 214h-8"/></g><path fill="none" stroke="#bcc1c5" stroke-miterlimit="10" stroke-width="1.5" d="M450.8 159.2l-5.8-1.3 1 6.1 4.8-4.8z"/><g><rect x="113" y="50" width="87" height="40" rx="6.7" fill="#d9efff"/><rect x="116.5" y="53.5" width="80" height="33" rx="4" fill="#fff" stroke="#66bfff" stroke-miterlimit="10"/><rect x="208.5" y="53.5" width="175" height="33" rx="4" fill="#fff" stroke="#bbc0c4" stroke-miterlimit="10"/><rect x="116.5" y="129.5" width="267" height="100" rx="4" fill="#fff" stroke="#bbc0c4" stroke-miterlimit="10"/><rect x="217" y="64" width="149" height="12" rx="2" fill="#d4d4d4"/><rect x="124" y="138" width="239" height="12" rx="2" fill="#d4d4d4"/><rect x="124" y="155" width="191" height="12" rx="2" fill="#d4d4d4"/><rect x="124" y="172" width="225" height="12" rx="2" fill="#d4d4d4"/><rect x="124" y="190" width="110" height="11" rx="2" fill="#d4d4d4"/><path fill="#3b4045" d="M179 71l4.5 5 4.5-5h-9zM188 69l-4.5-5-4.5 5h9z"/><g fill="#9199a1"><path d="M212.3 31v-1.8h8.7v1.7h-3.3v9h-2.2v-9zM222 29.9a1 1 0 0 1 .4-.8 1.4 1.4 0 0 1 1.7 0 1.1 1.1 0 0 1 0 1.5 1.4 1.4 0 0 1-1.7 0 1 1 0 0 1-.3-.7zm2.3 2v8h-2v-8zM230 39.8a3.9 3.9 0 0 1-1.2.2 2.4 2.4 0 0 1-1.7-.6 2.3 2.3 0 0 1-.6-1.8v-4.1h-1.2v-1.6h1.2v-2h2.1v2h1.4v1.6h-1.4v4a.8.8 0 0 0 .2.6 1 1 0 0 0 .6.1 3 3 0 0 0 .4 0h.2zM233.4 28.6v11.2h-2.1V28.6zM241.9 38.5a3.5 3.5 0 0 1-1.2 1 3.8 3.8 0 0 1-2 .5 3.7 3.7 0 0 1-2.8-1.1 3.9 3.9 0 0 1-1-2.8V36a4.3 4.3 0 0 1 1-3 3.4 3.4 0 0 1 2.6-1.1 3.2 3.2 0 0 1 2.6 1 4.3 4.3 0 0 1 1 2.9v.9H237a2 2 0 0 0 .6 1.2 1.8 1.8 0 0 0 1.3.5 2.3 2.3 0 0 0 2-1zm-3.4-5a1.3 1.3 0 0 0-1 .4 2.4 2.4 0 0 0-.5 1.2h3V35a1.7 1.7 0 0 0-.4-1 1.3 1.3 0 0 0-1-.4z"/></g><g fill="#9199a1"><path d="M124.8 38v1.8H118V29.2h2.2V38zM125.6 36v-.2a4.3 4.3 0 0 1 1-2.9 4 4 0 0 1 5.5 0 4.3 4.3 0 0 1 1 2.9v.2a4.3 4.3 0 0 1-1 2.8 4 4 0 0 1-5.5 0 4.3 4.3 0 0 1-1-2.8zm2.1-.2v.2a3.4 3.4 0 0 0 .4 1.6 1.5 1.5 0 0 0 2.5 0 3.4 3.4 0 0 0 .4-1.6v-.2a3.4 3.4 0 0 0-.4-1.6 1.3 1.3 0 0 0-1.2-.7 1.3 1.3 0 0 0-1.3.7 3.5 3.5 0 0 0-.4 1.6zM137.7 38.3a1.4 1.4 0 0 0 1-.3 1 1 0 0 0 .3-1h2a2.7 2.7 0 0 1-1 2.2 3.4 3.4 0 0 1-2.3.8 3.3 3.3 0 0 1-2.7-1.2 4.5 4.5 0 0 1-1-2.8v-.2a4.5 4.5 0 0 1 1-2.9 3.3 3.3 0 0 1 2.7-1.1 3.4 3.4 0 0 1 2.4.8 3 3 0 0 1 1 2.3h-2a1.5 1.5 0 0 0-.4-1 1.2 1.2 0 0 0-1-.4 1.2 1.2 0 0 0-1.2.7 4.3 4.3 0 0 0-.3 1.6v.2a4.2 4.2 0 0 0 .3 1.6 1.2 1.2 0 0 0 1.2.7zM146.8 39.8a3 3 0 0 1-.2-.7 2.8 2.8 0 0 1-.8.6 2.6 2.6 0 0 1-1.2.3 2.8 2.8 0 0 1-1.9-.7 2.2 2.2 0 0 1-.8-1.7 2.3 2.3 0 0 1 1-2 4.6 4.6 0 0 1 2.7-.6h1v-.5a1.3 1.3 0 0 0-.3-.8 1.1 1.1 0 0 0-1-.4q-1 0-1 1H142a2.2 2.2 0 0 1 1-1.8 3.8 3.8 0 0 1 2.4-.7 3.6 3.6 0 0 1 2.3.7 2.5 2.5 0 0 1 .9 2V38a6 6 0 0 0 0 1 2.7 2.7 0 0 0 .3.8v.1zm-1.7-1.4a1.7 1.7 0 0 0 .9-.3 1.5 1.5 0 0 0 .5-.5v-1.4h-.8a1.8 1.8 0 0 0-1.3.4 1.1 1.1 0 0 0-.3.9.9.9 0 0 0 .2.6 1 1 0 0 0 .8.3zM154.3 39.8a3.9 3.9 0 0 1-1.3.2 2.4 2.4 0 0 1-1.7-.6 2.3 2.3 0 0 1-.6-1.8v-4.1h-1.2v-1.6h1.2v-2h2.1v2h1.4v1.6h-1.4v4a.8.8 0 0 0 .2.6 1 1 0 0 0 .6.1 3 3 0 0 0 .4 0h.3zM155.3 29.9a1 1 0 0 1 .4-.8 1.4 1.4 0 0 1 1.7 0 1.1 1.1 0 0 1 0 1.5 1.4 1.4 0 0 1-1.7 0 1 1 0 0 1-.4-.7zm2.3 2v8h-2.1v-8zM159 36v-.2a4.3 4.3 0 0 1 1-2.9 4 4 0 0 1 5.5 0 4.3 4.3 0 0 1 1 2.9v.2a4.3 4.3 0 0 1-1 2.8 4 4 0 0 1-5.5 0 4.3 4.3 0 0 1-1-2.8zm2.1-.2v.2a3.4 3.4 0 0 0 .4 1.6 1.5 1.5 0 0 0 2.5 0 3.4 3.4 0 0 0 .4-1.6v-.2a3.4 3.4 0 0 0-.4-1.6 1.3 1.3 0 0 0-1.2-.7 1.3 1.3 0 0 0-1.3.7 3.5 3.5 0 0 0-.4 1.6zM171.2 33.5a1.4 1.4 0 0 0-1.3.7v5.6h-2.1V32h2v1a2.8 2.8 0 0 1 2.3-1.1 2.5 2.5 0 0 1 1.8.6 3.2 3.2 0 0 1 .7 2.4v5h-2.1v-5a1.3 1.3 0 0 0-.3-1 1.4 1.4 0 0 0-1-.3z"/></g><g fill="#9199a1"><path d="M130.8 71h-2.3v3.8h-1.3v-10h3.6a3.6 3.6 0 0 1 2.6 1 2.9 2.9 0 0 1 1 2.1 2.8 2.8 0 0 1-1 2.2 3.8 3.8 0 0 1-2.6.8zm-2.3-5v3.9h2.3a2.2 2.2 0 0 0 1.7-.6 2 2 0 0 0 .5-1.4 2 2 0 0 0-2.2-2zM140.4 74.8v-.7a2.3 2.3 0 0 1-1 .6 3.2 3.2 0 0 1-1.2.3 2.4 2.4 0 0 1-1.8-.7 2.8 2.8 0 0 1-.6-2v-4.9h1.2v4.8a1.7 1.7 0 0 0 .5 1.4 1.5 1.5 0 0 0 .9.3 2.3 2.3 0 0 0 1.2-.3 1.8 1.8 0 0 0 .7-.8v-5.4h1.3v7.4zM149.8 71.2a4.5 4.5 0 0 1-.8 2.7 2.4 2.4 0 0 1-2.1 1 2.6 2.6 0 0 1-2.2-1v1h-1.2V64.2h1.3v4a2.5 2.5 0 0 1 2-1 2.5 2.5 0 0 1 2.2 1 4.6 4.6 0 0 1 .8 2.8zm-3.2-2.8a1.8 1.8 0 0 0-1.2.3 2.3 2.3 0 0 0-.6.8v3.2a2.4 2.4 0 0 0 .7.9 1.8 1.8 0 0 0 1 .3 1.6 1.6 0 0 0 1.6-.8 3.8 3.8 0 0 0 .4-1.9v-.1a4 4 0 0 0-.4-2 1.6 1.6 0 0 0-1.5-.7zM152.7 64.3v10.5h-1.2V64.3zM154.8 65.5a.8.8 0 0 1 .2-.5.7.7 0 0 1 .5-.3.7.7 0 0 1 .6.3.7.7 0 0 1 .2.5.7.7 0 0 1-.2.5.7.7 0 0 1-.6.2.7.7 0 0 1-.5-.2.7.7 0 0 1-.2-.5zm1.4 2v7.3h-1.3v-7.4zM161.1 74a1.9 1.9 0 0 0 1.2-.5 1.4 1.4 0 0 0 .6-1h1.2a2.4 2.4 0 0 1-1 1.7 3 3 0 0 1-2 .8 2.9 2.9 0 0 1-2.4-1.1 4.3 4.3 0 0 1-.8-2.6V71a4.3 4.3 0 0 1 .8-2.6 3.3 3.3 0 0 1 4.5-.3 2.7 2.7 0 0 1 .9 1.9h-1.2a1.8 1.8 0 0 0-.5-1.2 1.6 1.6 0 0 0-1.3-.5 1.8 1.8 0 0 0-1.2.4 2.1 2.1 0 0 0-.6 1 4.4 4.4 0 0 0-.2 1.3v.3a4.5 4.5 0 0 0 .2 1.2 2.1 2.1 0 0 0 .6 1 1.8 1.8 0 0 0 1.2.4z"/></g><g fill="#9199a1"><path d="M125.9 114.7a2.8 2.8 0 0 1-1 2.3 4.5 4.5 0 0 1-2.9.8h-4v-10.6h3.7a5.1 5.1 0 0 1 2.9.7 2.5 2.5 0 0 1 1 2.2 2.5 2.5 0 0 1-.3 1.3 2.3 2.3 0 0 1-1.2 1 2 2 0 0 1 1.4.8 2.7 2.7 0 0 1 .4 1.5zm-5.7-5.8v2.7h1.5q1.7 0 1.7-1.3 0-1.4-1.7-1.4zm3.5 5.8a1.3 1.3 0 0 0-1.6-1.5h-2v2.9h2a1.7 1.7 0 0 0 1.2-.4 1.3 1.3 0 0 0 .4-1zM127 114v-.2a4.3 4.3 0 0 1 1-2.9 4 4 0 0 1 5.6 0 4.3 4.3 0 0 1 1 2.9v.2a4.3 4.3 0 0 1-1 2.8 4 4 0 0 1-5.6 0 4.3 4.3 0 0 1-1-2.8zm2.2-.2v.2a3.4 3.4 0 0 0 .4 1.6 1.5 1.5 0 0 0 2.5 0 3.4 3.4 0 0 0 .3-1.6v-.2a3.4 3.4 0 0 0-.3-1.6 1.3 1.3 0 0 0-1.3-.7 1.3 1.3 0 0 0-1.3.7 3.5 3.5 0 0 0-.3 1.6zM140.8 117.8l-.1-.8a2.7 2.7 0 0 1-.9.7 2.5 2.5 0 0 1-1.2.3 2.6 2.6 0 0 1-2.2-1.2 4.8 4.8 0 0 1-.9-2.8v-.2a4.9 4.9 0 0 1 .9-3 2.7 2.7 0 0 1 2.3-1 2.4 2.4 0 0 1 1.9.8v-4h2v11.2zm-3.1-3.8a3.6 3.6 0 0 0 .3 1.6 1.2 1.2 0 0 0 1.2.7 1.4 1.4 0 0 0 1.4-.9v-3.1a1.4 1.4 0 0 0-1.4-.8 1.2 1.2 0 0 0-1.2.7 3.6 3.6 0 0 0-.3 1.6zM147.8 119a5.3 5.3 0 0 1-.4.9 2.3 2.3 0 0 1-2 1.1 2.8 2.8 0 0 1-.6 0l-.4-.1v-1.6H144.7a1.7 1.7 0 0 0 1-.2 1.2 1.2 0 0 0 .4-.6l.2-.7-2.8-7.9h2.3l1.5 5 1.5-5h2.2z"/></g></g></svg>