<svg xmlns="http://www.w3.org/2000/svg" width="500" height="260"><path d="M348.7 85.3c-21-25-47.3-51.6-83-60.2-36-8.6-81.4.9-110 26s-40.7 66.2-35.2 102.2 28.6 67.2 57.4 80.5c28.9 13.3 63.6 8.9 92 3.2s50.7-12.7 71.6-26.3c20.9-13.5 40.5-33.5 42.4-55.2 1.8-21.7-14.1-45.1-35.2-70.2z" fill="rgba(85, 166, 214, 0.07)"/><path d="M419 35.2a3.6 3.6 0 1 1 3.6 3.6 3.6 3.6 0 0 1-3.6-3.6z" fill="#bcc1c5"/><path fill="none" stroke="#bcc1c5" stroke-miterlimit="10" stroke-width="1.5" d="M444 59h10v10"/><circle cx="436.7" cy="111.4" r="7.9" fill="none" stroke="#bcc1c5" stroke-miterlimit="10" stroke-width="1.5"/><circle cx="426.7" cy="194.5" r="6.2" fill="none" stroke="#bcc1c5" stroke-miterlimit="10" stroke-width="1.5"/><g fill="none" stroke="#bcc1c5" stroke-miterlimit="10" stroke-width="1.5"><path d="M460 210v8M464 214h-8"/></g><path fill="none" stroke="#bcc1c5" stroke-miterlimit="10" stroke-width="1.5" d="M450.8 159.2l-5.8-1.3 1 6.1 4.8-4.8z"/><g><path d="M42.7 129.9A3.9 3.9 0 1 1 39 126a3.9 3.9 0 0 1 3.8 3.9z" fill="#bcc1c5"/><circle cx="63" cy="218" r="8" fill="none" stroke="#bcc1c5" stroke-miterlimit="10" stroke-width="1.5"/><path fill="none" stroke="#bcc1c5" stroke-miterlimit="10" stroke-width="1.5" d="M75.1 165l-9.1-2 1.5 9.5 7.6-7.5z"/><circle cx="74.5" cy="97.5" r="4.5" fill="none" stroke="#bcc1c5" stroke-miterlimit="10" stroke-width="1.5"/><circle cx="37.5" cy="65.5" r="5.5" fill="none" stroke="#bcc1c5" stroke-miterlimit="10" stroke-width="1.5"/><g fill="none" stroke="#bcc1c5" stroke-miterlimit="10" stroke-width="1.5"><path d="M71 33v8M75 37h-8"/></g></g><g><path d="M250 71a59 59 0 1 0 59 59 59 59 0 0 0-59-59zm33 51.4l-44 43.1-22-21.1v-22l22 22 44-44z" fill="#43a163"/></g></svg>