<svg xmlns="http://www.w3.org/2000/svg" width="500" height="260"><path d="M387.3 87.7c-6.8-28.7-42-50.7-72.7-58.6-30.7-8-57-1.7-91.9-4-34.9-2.5-78.6-13.6-98 1.6-19.4 15-14.5 56.5-4.8 92.7 9.8 36.2 24.3 67.2 49.1 89.6 25 22.4 60 36.1 92.1 31.1s61-28.7 86.3-58.4 46.8-65.2 40-94z" fill="rgba(85, 166, 214, 0.07)"/><path d="M85.7 225.9A3.9 3.9 0 1 1 82 222a3.9 3.9 0 0 1 3.8 3.9zM34 113.6a3.6 3.6 0 1 1 3.6 3.6 3.6 3.6 0 0 1-3.6-3.6z" fill="#bcc1c5"/><circle cx="70" cy="66" r="8" fill="none" stroke="#bcc1c5" stroke-miterlimit="10" stroke-width="1.5"/><path fill="none" stroke="#bcc1c5" stroke-miterlimit="10" stroke-width="1.5" d="M64.9 151.8l-13 .4 7.2 8.8 5.8-9.2zM35 191h10v10"/><g fill="none" stroke="#bcc1c5" stroke-miterlimit="10" stroke-width="1.5"><path d="M47 27v8M51 31h-8"/></g><path fill="none" stroke="#bcc1c5" stroke-miterlimit="10" stroke-width="1.5" d="M412 25v13l9-7-9-6z"/><circle cx="443" cy="100" r="8" fill="none" stroke="#bcc1c5" stroke-miterlimit="10" stroke-width="1.5"/><path d="M440 163.6a3.6 3.6 0 1 1 3.6 3.6 3.6 3.6 0 0 1-3.6-3.6z" fill="#bcc1c5"/><path fill="none" stroke="#bcc1c5" stroke-miterlimit="10" stroke-width="1.5" d="M416 134h10v10"/><g fill="none" stroke="#bcc1c5" stroke-miterlimit="10" stroke-width="1.5"><path d="M450 50v8M454 54h-8"/></g><circle cx="418.5" cy="209.5" r="4.5" fill="none" stroke="#bcc1c5" stroke-miterlimit="10" stroke-width="1.5"/><g><rect x="177" y="54" width="107" height="34" rx="5" fill="#10212d"/><circle cx="192" cy="71" r="5" fill="#d1a684"/><rect x="224" y="132" width="148" height="34" rx="5" fill="#10212d"/><circle cx="239" cy="149" r="5" fill="#b4b8bc"/><rect x="176" y="171" width="151" height="34" rx="5" fill="#10212d"/><circle cx="191" cy="188" r="5" fill="#d1a684"/><rect x="132" y="93" width="183" height="34" rx="5" fill="#10212d"/><circle cx="147" cy="110" r="5" fill="#ffcc01"/><g fill="#fff"><path d="M206.4 78l5.7-14.9h1.7l5.8 15h-2l-1.5-4h-6.2l-1.5 4zm4-5.5h5.1l-2.5-7zM223.3 62.3v15.8h-1.9V62.3zM231 78a4.8 4.8 0 0 1-1.4.3 2.7 2.7 0 0 1-1.8-.7 3 3 0 0 1-.8-2.3v-6.9h-2V67h2v-2.7h2V67h2v1.4h-2v7q0 .8.3 1a1.5 1.5 0 0 0 .9.2 2.8 2.8 0 0 0 .5 0h.4zM237.7 68.6a2.7 2.7 0 0 0-1.6.4 2.6 2.6 0 0 0-1 1.2v7.9h-1.9V67h1.9v1.2a3.3 3.3 0 0 1 1.1-1 3 3 0 0 1 1.6-.4 2 2 0 0 1 .8.1v1.8a4.8 4.8 0 0 0-1-.1zM247.2 78v-1a3.4 3.4 0 0 1-1.3 1 4.9 4.9 0 0 1-2 .3 3.6 3.6 0 0 1-2.6-1 4.3 4.3 0 0 1-1-3.2V67h2v7.2a2.5 2.5 0 0 0 .5 2 2.2 2.2 0 0 0 1.5.5 3.4 3.4 0 0 0 1.8-.5 2.7 2.7 0 0 0 1-1.1V67h2v11zM252 64a1.1 1.1 0 0 1 .2-.7 1 1 0 0 1 .9-.4 1 1 0 0 1 .8.4 1.1 1.1 0 0 1 .3.7 1 1 0 0 1-.3.8 1 1 0 0 1-.8.3 1 1 0 0 1-.9-.3 1 1 0 0 1-.3-.8zm2 3v11h-2V67zM263.5 75.1a1.6 1.6 0 0 0-.5-1 4.2 4.2 0 0 0-2-.9 8.4 8.4 0 0 1-3-1.1 2.4 2.4 0 0 1-1-2 3 3 0 0 1 1-2.4 5.2 5.2 0 0 1 6.2 0 3.2 3.2 0 0 1 1 2.5h-1.8a1.8 1.8 0 0 0-.6-1.3 2.9 2.9 0 0 0-3.4 0 1.6 1.6 0 0 0-.5 1 1.2 1.2 0 0 0 .4 1 6 6 0 0 0 2.1.8 8 8 0 0 1 3 1.2 2.5 2.5 0 0 1 1 2 2.9 2.9 0 0 1-1.2 2.5 5 5 0 0 1-3 .9 4.7 4.7 0 0 1-3.5-1.2 3.4 3.4 0 0 1-1.1-2.5h1.9a1.8 1.8 0 0 0 .9 1.7 3.7 3.7 0 0 0 1.7.4 3 3 0 0 0 1.8-.4 1.4 1.4 0 0 0 .6-1.2zM272.6 78a4.8 4.8 0 0 1-1.5.3 2.7 2.7 0 0 1-1.8-.7 3 3 0 0 1-.7-2.3v-6.9h-2V67h2v-2.7h1.9V67h2v1.4h-2v7q0 .8.3 1a1.5 1.5 0 0 0 .9.2 2.8 2.8 0 0 0 .5 0h.4z"/></g><g fill="#fff"><path d="M168.8 113.3a2 2 0 0 0-.7-1.7 8.3 8.3 0 0 0-2.8-1.2 10.7 10.7 0 0 1-3.6-1.6 3.3 3.3 0 0 1-1.3-2.8 3.6 3.6 0 0 1 1.4-2.9 5.6 5.6 0 0 1 3.7-1.2 5.2 5.2 0 0 1 3.9 1.4 4.3 4.3 0 0 1 1.4 3.1h-2a2.8 2.8 0 0 0-.8-2 4.2 4.2 0 0 0-4.8-.2 2.2 2.2 0 0 0-.8 1.8 1.9 1.9 0 0 0 .8 1.5 8.2 8.2 0 0 0 2.7 1.2 9.4 9.4 0 0 1 3.7 1.8 3.6 3.6 0 0 1 1.2 2.8 3.5 3.5 0 0 1-1.4 2.9 6 6 0 0 1-3.8 1 7.2 7.2 0 0 1-2.7-.4 5.2 5.2 0 0 1-2.1-1.6 3.8 3.8 0 0 1-.8-2.5h2a2.4 2.4 0 0 0 1 2.3 4.7 4.7 0 0 0 2.6.7 3.9 3.9 0 0 0 2.4-.7 2 2 0 0 0 .8-1.7zM177.7 117a4.8 4.8 0 0 1-1.4.3 2.7 2.7 0 0 1-1.8-.7 3 3 0 0 1-.8-2.3v-6.9h-2V106h2v-2.7h2v2.7h2v1.4h-2v7q0 .8.3 1a1.5 1.5 0 0 0 .8.2 2.8 2.8 0 0 0 .5 0h.4zM188.7 115.1a5.4 5.4 0 0 1-1.6 1.5 4.7 4.7 0 0 1-2.6.7 4.8 4.8 0 0 1-3.7-1.5 5.5 5.5 0 0 1-1.4-3.9v-.4a6.4 6.4 0 0 1 .7-3.1 5 5 0 0 1 1.8-2 4.5 4.5 0 0 1 2.4-.6 4 4 0 0 1 3.4 1.5 6.6 6.6 0 0 1 1.1 4v.8h-7.5a4.2 4.2 0 0 0 1 2.6 2.9 2.9 0 0 0 2.3 1 3.3 3.3 0 0 0 1.7-.4 4.2 4.2 0 0 0 1.2-1zm-4.4-7.8a2.5 2.5 0 0 0-2 .9 4 4 0 0 0-1 2.3h5.6v-.1a4.6 4.6 0 0 0-.6-2.1 2.2 2.2 0 0 0-2-1zM193.1 101.3v15.8h-1.9v-15.8zM198.2 101.3v15.8h-1.9v-15.8zM208.1 117a3.9 3.9 0 0 1-.3-1.1 4.8 4.8 0 0 1-1.3 1 4 4 0 0 1-1.8.4 3.8 3.8 0 0 1-2.7-1 3.3 3.3 0 0 1 .3-5 6.3 6.3 0 0 1 3.6-1h1.9v-.8a2.1 2.1 0 0 0-.6-1.6 2.4 2.4 0 0 0-1.7-.6 2.7 2.7 0 0 0-1.8.5 1.5 1.5 0 0 0-.6 1.3h-2a3 3 0 0 1 1.3-2.3 4.7 4.7 0 0 1 3.2-1 4.6 4.6 0 0 1 3 .9 3.4 3.4 0 0 1 1 2.8v5.2a7.6 7.6 0 0 0 .2 1.1 4.4 4.4 0 0 0 .3 1.1v.2zm-3.1-1.4a3 3 0 0 0 1.7-.5 3 3 0 0 0 1.1-1.1v-2.3h-1.6q-3.4 0-3.4 2a1.8 1.8 0 0 0 .6 1.4 2.1 2.1 0 0 0 1.6.5zM217.1 107.6a2.7 2.7 0 0 0-1.6.4 2.6 2.6 0 0 0-1 1.2v7.9h-1.8V106h1.8v1.2a3.3 3.3 0 0 1 1.1-1 3 3 0 0 1 1.6-.4 2 2 0 0 1 .8.1v1.8a4.8 4.8 0 0 0-.9-.1zM236.7 118.4l-1.3 1.2-3.1-2.5a6.4 6.4 0 0 1-1.6.2 5.5 5.5 0 0 1-4.3-2 7.7 7.7 0 0 1-1.7-5.2v-1a7.8 7.8 0 0 1 1.7-5.2 5.9 5.9 0 0 1 8.7 0 7.9 7.9 0 0 1 1.6 5.2v1a9.3 9.3 0 0 1-.7 3.7 5.8 5.8 0 0 1-2 2.5zm-2-8.3v-1a6.7 6.7 0 0 0-1-4 3.8 3.8 0 0 0-6 0 6.5 6.5 0 0 0-1 4v1a6.5 6.5 0 0 0 1 4 3.6 3.6 0 0 0 3 1.5 3.5 3.5 0 0 0 3-1.4 6.8 6.8 0 0 0 1-4.1zM246.3 117v-1a3.4 3.4 0 0 1-1.3 1 4.9 4.9 0 0 1-2 .3 3.6 3.6 0 0 1-2.6-1 4.3 4.3 0 0 1-1-3.2V106h2v7.2a2.5 2.5 0 0 0 .5 2 2.2 2.2 0 0 0 1.4.5 3.4 3.4 0 0 0 1.9-.5 2.7 2.7 0 0 0 1-1.1V106h2v11zM259.8 115.1a5.4 5.4 0 0 1-1.5 1.5 4.7 4.7 0 0 1-2.7.7 4.8 4.8 0 0 1-3.7-1.5 5.5 5.5 0 0 1-1.4-3.9v-.4a6.4 6.4 0 0 1 .7-3.1 5 5 0 0 1 1.8-2 4.5 4.5 0 0 1 2.4-.6 4 4 0 0 1 3.5 1.5 6.6 6.6 0 0 1 1 4v.8h-7.5a4.2 4.2 0 0 0 1 2.6 2.9 2.9 0 0 0 2.3 1 3.3 3.3 0 0 0 1.7-.4 4.2 4.2 0 0 0 1.3-1zm-4.4-7.8a2.5 2.5 0 0 0-2 .9 4 4 0 0 0-.9 2.3h5.6v-.1a4.6 4.6 0 0 0-.7-2.1 2.2 2.2 0 0 0-2-1zM268.6 114.1a1.6 1.6 0 0 0-.4-1 4.2 4.2 0 0 0-2.1-.9 8.4 8.4 0 0 1-3-1.1 2.4 2.4 0 0 1-1-2 3 3 0 0 1 1-2.4 5.2 5.2 0 0 1 6.2 0 3.2 3.2 0 0 1 1.1 2.5h-1.9a1.8 1.8 0 0 0-.6-1.3 2.9 2.9 0 0 0-3.4 0 1.6 1.6 0 0 0-.5 1 1.2 1.2 0 0 0 .5 1 6 6 0 0 0 2 .8 8 8 0 0 1 3 1.2 2.5 2.5 0 0 1 1 2 2.9 2.9 0 0 1-1.2 2.5 5 5 0 0 1-3 .9 4.7 4.7 0 0 1-3.4-1.2 3.4 3.4 0 0 1-1.2-2.5h1.9a1.8 1.8 0 0 0 1 1.7 3.7 3.7 0 0 0 1.6.4 3 3 0 0 0 1.8-.4 1.4 1.4 0 0 0 .6-1.2zM277.7 117a5 5 0 0 1-.6.2 5 5 0 0 1-.9 0 2.7 2.7 0 0 1-1.8-.6 3 3 0 0 1-.7-2.3v-6.9h-2V106h2v-2.7h1.9v2.7h2v1.4h-2v7q0 .8.3 1a1.5 1.5 0 0 0 .9.2 2.8 2.8 0 0 0 .5 0h.4zM279.9 103a1.1 1.1 0 0 1 .3-.7 1 1 0 0 1 .8-.4 1 1 0 0 1 .8.4 1.1 1.1 0 0 1 .3.7 1 1 0 0 1-.3.8 1 1 0 0 1-.8.3 1 1 0 0 1-.8-.3 1 1 0 0 1-.3-.8zm2 3v11H280v-11zM284.5 111.6v-.2a6 6 0 0 1 1.3-4 5 5 0 0 1 7.4 0 6 6 0 0 1 1.4 4v.2a6 6 0 0 1-1.4 4 5 5 0 0 1-7.4 0 6 6 0 0 1-1.3-4zm1.9-.2v.2a5.1 5.1 0 0 0 .8 3 3 3 0 0 0 4.7 0 5.1 5.1 0 0 0 .8-3v-.2a5.2 5.2 0 0 0-.8-2.8 2.9 2.9 0 0 0-4.7 0 5.2 5.2 0 0 0-.8 2.8zM301.6 107.4a2.7 2.7 0 0 0-1.7.5 3.4 3.4 0 0 0-1 1.2v8h-2V106h1.8l.1 1.4a4 4 0 0 1 3.3-1.6 3.6 3.6 0 0 1 2.6.9 4.2 4.2 0 0 1 1 3.1v7.3h-2v-7.3a2.5 2.5 0 0 0-.5-1.9 2.3 2.3 0 0 0-1.6-.5z"/></g><g fill="#fff"><path d="M253.9 156v-14.9h9.3v1.7h-7.4v4.8h6.5v1.6h-6.5v5.3h7.5v1.6zM270.1 146.4a2.7 2.7 0 0 0-1.6.5 3.4 3.4 0 0 0-1.1 1.2v8h-1.9V145h1.8v1.4a4 4 0 0 1 3.4-1.6 3.6 3.6 0 0 1 2.6.9 4.2 4.2 0 0 1 1 3.1v7.3h-2v-7.3a2.5 2.5 0 0 0-.5-1.9 2.3 2.3 0 0 0-1.7-.5zM279.2 140.3v15.8h-2v-15.8zM282.2 142a1.1 1.1 0 0 1 .3-.7 1 1 0 0 1 .8-.4 1 1 0 0 1 .9.4 1.1 1.1 0 0 1 .3.7 1 1 0 0 1-.3.8 1 1 0 0 1-.9.3 1 1 0 0 1-.8-.3 1 1 0 0 1-.3-.8zm2 3v11h-1.8v-11zM296.2 155.8a4.4 4.4 0 0 1-1.3 3.4 4.8 4.8 0 0 1-3.4 1.3 6.9 6.9 0 0 1-2-.5 3.9 3.9 0 0 1-2-1.5l1-1.1a4 4 0 0 0 1.4 1.2 3.9 3.9 0 0 0 1.5.3 3 3 0 0 0 2.1-.8 2.9 2.9 0 0 0 .8-2.2v-1a3.9 3.9 0 0 1-3 1.4 3.7 3.7 0 0 1-3.3-1.6 6.6 6.6 0 0 1-1.1-4v-.3a6.6 6.6 0 0 1 1.1-4 4.1 4.1 0 0 1 6.4-.2l.1-1.2h1.7zm-7.4-5.2a5.5 5.5 0 0 0 .7 2.9 2.4 2.4 0 0 0 2.2 1.2 2.7 2.7 0 0 0 1.6-.5 3.3 3.3 0 0 0 1-1.2v-5a3.2 3.2 0 0 0-1-1.2 2.7 2.7 0 0 0-1.6-.4 2.4 2.4 0 0 0-2.2 1.2 5.6 5.6 0 0 0-.7 2.8zM303.7 146.4a2.7 2.7 0 0 0-1.6.5 3.4 3.4 0 0 0-1.1 1.2v8h-1.9v-15.8h1.9v6a4 4 0 0 1 3.3-1.5 3.6 3.6 0 0 1 2.6.9 4.2 4.2 0 0 1 1 3.1v7.3h-2v-7.3a2.5 2.5 0 0 0-.5-1.9 2.3 2.3 0 0 0-1.7-.5zM315.4 156a5 5 0 0 1-.6.2 5 5 0 0 1-.9 0 2.7 2.7 0 0 1-1.8-.6 3 3 0 0 1-.8-2.3v-6.9h-2V145h2v-2.7h2v2.7h2v1.4h-2v7q0 .8.3 1a1.5 1.5 0 0 0 .9.2 2.8 2.8 0 0 0 .5 0h.4zM326.3 154.1a5.4 5.4 0 0 1-1.5 1.5 4.7 4.7 0 0 1-2.7.7 4.8 4.8 0 0 1-3.7-1.5 5.5 5.5 0 0 1-1.4-3.9v-.4a6.4 6.4 0 0 1 .7-3.1 5 5 0 0 1 1.8-2 4.5 4.5 0 0 1 2.4-.6 4 4 0 0 1 3.5 1.5 6.6 6.6 0 0 1 1 4v.8H319a4.2 4.2 0 0 0 .9 2.6 2.9 2.9 0 0 0 2.3 1 3.3 3.3 0 0 0 1.8-.4 4.2 4.2 0 0 0 1.2-1zm-4.4-7.8a2.5 2.5 0 0 0-2 .9 4 4 0 0 0-.9 2.3h5.6v-.1a4.6 4.6 0 0 0-.7-2.1 2.2 2.2 0 0 0-2-1zM333.3 146.4a2.7 2.7 0 0 0-1.6.5 3.4 3.4 0 0 0-1.1 1.2v8h-2V145h1.9v1.4a4 4 0 0 1 3.3-1.6 3.6 3.6 0 0 1 2.6.9 4.2 4.2 0 0 1 1 3.1v7.3h-1.9v-7.3a2.5 2.5 0 0 0-.6-1.9 2.3 2.3 0 0 0-1.6-.5zM349 154.1a5.4 5.4 0 0 1-1.5 1.5 4.7 4.7 0 0 1-2.6.7 4.8 4.8 0 0 1-3.7-1.5 5.5 5.5 0 0 1-1.4-3.9v-.4a6.4 6.4 0 0 1 .7-3.1 5 5 0 0 1 1.8-2 4.5 4.5 0 0 1 2.3-.6 4 4 0 0 1 3.5 1.5 6.6 6.6 0 0 1 1.1 4v.8h-7.5a4.2 4.2 0 0 0 .9 2.6 2.9 2.9 0 0 0 2.4 1 3.3 3.3 0 0 0 1.7-.4 4.2 4.2 0 0 0 1.2-1zm-4.4-7.8a2.5 2.5 0 0 0-1.9.9 4 4 0 0 0-1 2.3h5.6v-.1a4.6 4.6 0 0 0-.6-2.1 2.2 2.2 0 0 0-2-1zM358.6 156l-.1-1.1a3.9 3.9 0 0 1-3.2 1.4 3.8 3.8 0 0 1-3.2-1.6 6.5 6.5 0 0 1-1.2-4v-.3a6.5 6.5 0 0 1 1.2-4 4.1 4.1 0 0 1 6.3-.3v-5.8h2v15.8zm-5.8-5.4a5.5 5.5 0 0 0 .7 2.9 2.4 2.4 0 0 0 2.3 1.2 2.7 2.7 0 0 0 1.6-.5 3.4 3.4 0 0 0 1-1.1V148a3.3 3.3 0 0 0-1-1.2 2.7 2.7 0 0 0-1.6-.4 2.4 2.4 0 0 0-2.3 1.2 5.6 5.6 0 0 0-.7 2.8z"/></g><g fill="#fff"><path d="M213.8 192.3a2 2 0 0 0-.7-1.7 8.3 8.3 0 0 0-2.8-1.2 10.7 10.7 0 0 1-3.6-1.6 3.3 3.3 0 0 1-1.3-2.8 3.6 3.6 0 0 1 1.4-2.9 5.6 5.6 0 0 1 3.7-1.2 5.2 5.2 0 0 1 3.9 1.4 4.3 4.3 0 0 1 1.4 3.1h-2a2.8 2.8 0 0 0-.8-2 4.2 4.2 0 0 0-4.8-.2 2.2 2.2 0 0 0-.8 1.8 1.9 1.9 0 0 0 .8 1.5 8.2 8.2 0 0 0 2.7 1.2 9.4 9.4 0 0 1 3.7 1.8 3.6 3.6 0 0 1 1.2 2.8 3.5 3.5 0 0 1-1.4 2.9 6 6 0 0 1-3.8 1 7.2 7.2 0 0 1-2.7-.4 5.2 5.2 0 0 1-2.1-1.6 3.8 3.8 0 0 1-.8-2.5h2a2.4 2.4 0 0 0 1 2.3 4.7 4.7 0 0 0 2.6.7 3.9 3.9 0 0 0 2.4-.7 2 2 0 0 0 .8-1.7zM226.8 194.1a5.4 5.4 0 0 1-1.5 1.5 4.7 4.7 0 0 1-2.7.7 4.8 4.8 0 0 1-3.7-1.5 5.5 5.5 0 0 1-1.4-3.9v-.4a6.4 6.4 0 0 1 .7-3.1 5 5 0 0 1 1.8-2 4.5 4.5 0 0 1 2.4-.6 4 4 0 0 1 3.5 1.5 6.6 6.6 0 0 1 1 4v.8h-7.4a4.2 4.2 0 0 0 .9 2.6 2.9 2.9 0 0 0 2.3 1 3.3 3.3 0 0 0 1.7-.4 4.2 4.2 0 0 0 1.3-1zm-4.4-7.8a2.5 2.5 0 0 0-2 .9 4 4 0 0 0-.9 2.3h5.6v-.1a4.6 4.6 0 0 0-.7-2.1 2.2 2.2 0 0 0-2-1zM231.2 180.3v15.8h-1.9v-15.8zM239.5 186.4H237v9.7h-1.9v-9.7h-1.7V185h1.7v-1.2a3.7 3.7 0 0 1 1-2.7 3.6 3.6 0 0 1 2.7-1 5.7 5.7 0 0 1 1.3.2l-.1 1.5a5 5 0 0 0-1 0q-2 0-2 2v1.2h2.4zM245.5 189v1.5h-5v-1.6zM256.7 194.5v1.6h-9v-15h2v13.4zM267.5 194.1a5.4 5.4 0 0 1-1.6 1.5 4.7 4.7 0 0 1-2.6.7 4.8 4.8 0 0 1-3.7-1.5 5.5 5.5 0 0 1-1.4-3.9v-.4a6.4 6.4 0 0 1 .7-3.1 5 5 0 0 1 1.8-2 4.5 4.5 0 0 1 2.4-.6 4 4 0 0 1 3.4 1.5 6.6 6.6 0 0 1 1.1 4v.8h-7.5a4.2 4.2 0 0 0 1 2.6 2.9 2.9 0 0 0 2.3 1 3.3 3.3 0 0 0 1.7-.4 4.2 4.2 0 0 0 1.2-1zm-4.4-7.8a2.5 2.5 0 0 0-2 .9 4 4 0 0 0-1 2.3h5.6v-.1a4.6 4.6 0 0 0-.6-2.1 2.2 2.2 0 0 0-2-1zM276.7 196a3.9 3.9 0 0 1-.3-1.1 4.8 4.8 0 0 1-1.3 1 4 4 0 0 1-1.8.4 3.8 3.8 0 0 1-2.8-1 3.3 3.3 0 0 1 .4-5 6.3 6.3 0 0 1 3.6-1h1.9v-.8a2.1 2.1 0 0 0-.6-1.6 2.4 2.4 0 0 0-1.8-.6 2.7 2.7 0 0 0-1.7.5 1.5 1.5 0 0 0-.7 1.3h-1.9a3 3 0 0 1 1.2-2.3 4.7 4.7 0 0 1 3.2-1 4.6 4.6 0 0 1 3 .9 3.3 3.3 0 0 1 1.2 2.8v5.2a7.6 7.6 0 0 0 0 1.1 4.4 4.4 0 0 0 .4 1.1v.2zm-3.2-1.4a3 3 0 0 0 1.8-.5 3 3 0 0 0 1-1.1v-2.3h-1.5q-3.4 0-3.4 2a1.8 1.8 0 0 0 .5 1.4 2.1 2.1 0 0 0 1.6.5zM285.7 186.6a2.7 2.7 0 0 0-1.6.4 2.6 2.6 0 0 0-1 1.2v7.9h-1.8V185h1.8v1.2a3.3 3.3 0 0 1 1.1-1 3 3 0 0 1 1.6-.4 2 2 0 0 1 .8.1v1.8a4.8 4.8 0 0 0-1-.1zM293 186.4a2.7 2.7 0 0 0-1.6.5 3.4 3.4 0 0 0-1.1 1.2v8h-2V185h1.9v1.4a4 4 0 0 1 3.3-1.6 3.6 3.6 0 0 1 2.6.9 4.2 4.2 0 0 1 1 3.1v7.3h-2v-7.3a2.5 2.5 0 0 0-.5-1.9 2.3 2.3 0 0 0-1.6-.5zM308.7 194.1a5.4 5.4 0 0 1-1.5 1.5 4.7 4.7 0 0 1-2.6.7 4.8 4.8 0 0 1-3.7-1.5 5.5 5.5 0 0 1-1.4-3.9v-.4a6.4 6.4 0 0 1 .7-3.1 5 5 0 0 1 1.8-2 4.5 4.5 0 0 1 2.3-.6 4 4 0 0 1 3.5 1.5 6.6 6.6 0 0 1 1 4v.8h-7.4a4.2 4.2 0 0 0 .9 2.6 2.9 2.9 0 0 0 2.4 1 3.3 3.3 0 0 0 1.7-.4 4.2 4.2 0 0 0 1.2-1zm-4.4-7.8a2.5 2.5 0 0 0-1.9.9 4 4 0 0 0-1 2.3h5.6v-.1a4.6 4.6 0 0 0-.7-2.1 2.2 2.2 0 0 0-2-1zM315.5 186.6a2.7 2.7 0 0 0-1.6.4 2.6 2.6 0 0 0-.9 1.2v7.9h-1.9V185h1.8v1.2a3.3 3.3 0 0 1 1.2-1 3 3 0 0 1 1.5-.4 2 2 0 0 1 .9.1v1.8a4.8 4.8 0 0 0-1-.1z"/></g></g></svg>