<svg xmlns="http://www.w3.org/2000/svg" width="500" height="260"><path d="M361.9 50c-31.4-21.7-78.1-34.7-127.1-34.5S134.4 29.2 112.3 53.2s-15 58.7-4 86.5a137.4 137.4 0 0 0 50.3 65.5c23.9 16.8 56.7 29.2 83.8 24.7s48.5-26.2 78-45.3c29.7-19.2 67.5-35.9 78.4-59.3 10.8-23.5-5.4-53.7-37-75.3z" fill="rgba(85, 166, 214, 0.07)"/><path d="M42.7 83.9A3.9 3.9 0 1 1 39 80a3.9 3.9 0 0 1 3.8 3.9zM424 118.6a3.6 3.6 0 1 1 3.6 3.6 3.6 3.6 0 0 1-3.6-3.6z" fill="#bcc1c5"/><circle cx="64" cy="119" r="8" fill="none" stroke="#bcc1c5" stroke-miterlimit="10" stroke-width="1.5"/><circle cx="54.5" cy="190.5" r="3.5" fill="none" stroke="#bcc1c5" stroke-miterlimit="10" stroke-width="1.5"/><path fill="none" stroke="#bcc1c5" stroke-miterlimit="10" stroke-width="1.5" d="M32 151v13l9-7-9-6z"/><g fill="none" stroke="#bcc1c5" stroke-miterlimit="10" stroke-width="1.5"><path d="M87 212v8M91 216h-8"/></g><path fill="none" stroke="#bcc1c5" stroke-miterlimit="10" stroke-width="1.5" d="M417 195h10v10M32 40h10v10"/><g fill="none" stroke="#bcc1c5" stroke-miterlimit="10" stroke-width="1.5"><path d="M441 81v8M445 85h-8"/></g><circle cx="446" cy="151" r="8" fill="none" stroke="#bcc1c5" stroke-miterlimit="10" stroke-width="1.5"/><circle cx="422.5" cy="57.5" r="3.5" fill="none" stroke="#bcc1c5" stroke-miterlimit="10" stroke-width="1.5"/><path fill="none" stroke="#bcc1c5" stroke-miterlimit="10" stroke-width="1.5" d="M454 37.2V43l4-3.1-4-2.7z"/><g><rect x="116.5" y="87.5" width="267" height="100" rx="4" fill="#fff" stroke="#bbc0c4" stroke-miterlimit="10"/><rect x="124" y="96" width="239" height="12" rx="2" fill="#d4d4d4"/><rect x="124" y="113" width="191.8" height="12" rx="2" fill="#d4d4d4"/><rect x="124" y="130" width="225" height="12" rx="2" fill="#d4d4d4"/><rect x="124" y="148" width="109" height="11" rx="2" fill="#d4d4d4"/><g fill="#9199a1"><path d="M122.5 60.4l2.3 4.8 2.2-4.8h2.4l-3.5 6.8v3.9h-2.3v-3.9l-3.5-6.8zM129.4 67.2V67a4.3 4.3 0 0 1 1-2.8 4 4 0 0 1 5.5 0 4.3 4.3 0 0 1 1 2.8v.2a4.3 4.3 0 0 1-1 2.9 4 4 0 0 1-5.5 0 4.3 4.3 0 0 1-1-3zm2.1-.2v.2a3.4 3.4 0 0 0 .4 1.6 1.5 1.5 0 0 0 2.5 0 3.4 3.4 0 0 0 .4-1.6V67a3.4 3.4 0 0 0-.4-1.6 1.3 1.3 0 0 0-1.2-.7 1.3 1.3 0 0 0-1.3.7 3.5 3.5 0 0 0-.4 1.6zM143 71v-.7a3 3 0 0 1-4 .2 3 3 0 0 1-.8-2.2V63h2v5.2a1 1 0 0 0 1.2 1.2 1.9 1.9 0 0 0 1-.2 1.4 1.4 0 0 0 .5-.6v-5.6h2.1v8zM150.3 65a1.5 1.5 0 0 0-1.6.9V71h-2v-8h2v1a2 2 0 0 1 1.8-1.1 1.9 1.9 0 0 1 .6.1v2h-.4a4 4 0 0 0-.4 0zM155 71l4-10.6h2l4 10.7h-2.3l-.7-2.2h-3.9l-.7 2.2zm3.7-3.9h2.7l-1.3-4zM169 64.7a1.4 1.4 0 0 0-1.3.8V71h-2.2v-8h2l.1 1a2.8 2.8 0 0 1 2.3-1.1 2.5 2.5 0 0 1 1.8.7 3.2 3.2 0 0 1 .7 2.3v5h-2.1v-5a1.3 1.3 0 0 0-.4-1 1.4 1.4 0 0 0-.9-.3zM178.3 68.9a.7.7 0 0 0-.3-.6 3.8 3.8 0 0 0-1.3-.4 5.5 5.5 0 0 1-2-.9 1.8 1.8 0 0 1-.9-1.5 2.2 2.2 0 0 1 .9-1.8 3.4 3.4 0 0 1 2.3-.7 3.7 3.7 0 0 1 2.4.7 2.3 2.3 0 0 1 1 1.9h-2.2a1 1 0 0 0-.3-.8 1.2 1.2 0 0 0-1-.3 1.3 1.3 0 0 0-.7.2.8.8 0 0 0-.3.7.7.7 0 0 0 .3.5 3.4 3.4 0 0 0 1.1.4 6.4 6.4 0 0 1 2.2.8 1.9 1.9 0 0 1 .8 1.7 2.1 2.1 0 0 1-.9 1.7 4 4 0 0 1-2.4.7 3.5 3.5 0 0 1-2.5-.8 2.5 2.5 0 0 1-1-1.9h2.1a1 1 0 0 0 .5 1 1.8 1.8 0 0 0 1 .2q1.2 0 1.2-.8zM191.7 63.1l-2 8h-1.8l-1.5-5-1.5 5H183l-2-8h2l1 5 1.5-5h1.6l1.4 5 1-5zM199.5 69.8a3.5 3.5 0 0 1-1.2 1 3.8 3.8 0 0 1-2 .4 3.7 3.7 0 0 1-2.8-1.1 3.9 3.9 0 0 1-1-2.7V67a4.3 4.3 0 0 1 1-3A3.4 3.4 0 0 1 196 63a3.2 3.2 0 0 1 2.6 1 4.3 4.3 0 0 1 1 2.9v.9h-5.1a2 2 0 0 0 .6 1.2 1.8 1.8 0 0 0 1.3.5 2.3 2.3 0 0 0 2-.9zm-3.4-5a1.3 1.3 0 0 0-1 .4 2.4 2.4 0 0 0-.5 1.1h3v-.1a1.7 1.7 0 0 0-.4-1 1.3 1.3 0 0 0-1-.5zM204.5 65a1.5 1.5 0 0 0-1.5.9V71h-2.2v-8h2l.1 1a2 2 0 0 1 1.8-1.1 1.9 1.9 0 0 1 .6.1v2h-.4a4 4 0 0 0-.4 0z"/></g></g></svg>