<svg xmlns="http://www.w3.org/2000/svg" width="302" height="599"><path fill-rule="evenodd" d="M52 1.447h189.24c9.32 0 29.477-.716 43.322 12.395C299.138 27.645 298.5 49.824 298.5 49.824v101.174s1.503-.2 1.503 1.327c0 .684.006 65.938-.002 67.665-.007 1.681-1.503 1.511-1.503 1.511L298.5 462.5v87.708c0 7.27-1.915 23.878-13.783 34.941C272.85 596.212 259.32 598 247.71 598l-81.444-.011s-2.661-.967-5.123-.967c-1.779 0-18.839.031-20.821.031-3.683 0-4.322.947-4.322.947H64.22c-17.13 0-35.74.031-48.311-13.28C3.338 571.409 3 555.004 3 550.697V287v-49.889s-1.44-.247-1.494-1.423c-.054-1.175.022-42.055.022-43.158 0-1.103 1.469-.932 1.469-.932l-.016-10.371s-1.456-.319-1.456-1.355l.016-43.39c0-1.398 1.484-1.214 1.484-1.214L3 115.076s-.986.348-.986-1.316l-.005-19.569c0-1.225.991-1.308.991-1.308V51.341c0-5.936-.005-19.027 8.153-30.887 6.046-8.788 14.934-13.642 20.416-15.887C37.361 2.195 52 1.447 52 1.447zM52.057 19s-14.284-.189-23.47 9.339c-9.034 9.369-7.602 30.496-7.602 30.496L21 534.399s-2.075 27.352 7.52 36.216C38.289 579.639 45.448 580 60.929 580h184.215c8.151 0 20.326.178 29.637-11.442 6.191-7.726 5.719-25.51 5.719-28.94V56.686c0-3.413.683-20.235-7.54-27.912-6.907-8.883-20.524-9.795-23.333-9.795-2.81 0-16.823.021-21.43.021-4.608 0-5.242 3.563-5.159 5.214.083 1.651-1.081 8.548-4.24 11.596-3.158 3.048-7.244 4.243-10.796 4.243H95.57s-8.064.697-12.586-3.965c-4.35-4.147-4.178-10.24-4.178-10.24s-.121-3.887-1.198-5.035c-1.078-1.147-3.251-1.881-6.158-1.881-1.696 0-19.393.068-19.393.068z"/></svg>