<?xml version="1.0" encoding="utf-8"?>
<!-- Generator: Adobe Illustrator 23.1.1, SVG Export Plug-In . SVG Version: 6.00 Build 0)  -->
<svg version="1.1" id="Layer_1" xmlns="http://www.w3.org/2000/svg" xmlns:xlink="http://www.w3.org/1999/xlink" x="0px" y="0px"
	 width="302px" height="599px" viewBox="0 0 302 599" style="enable-background:new 0 0 302 599;" xml:space="preserve">
<style type="text/css">
	.st0{fill-rule:evenodd;clip-rule:evenodd;}
</style>
<path class="st0" d="M52.1,19c0,0-14.3-0.2-23.5,9.3c-9,9.4-7.6,30.5-7.6,30.5l0,475.6c0,0-2.1,27.4,7.5,36.2
	c9.8,9,16.9,9.4,32.4,9.4h184.2c8.2,0,20.3,0.2,29.6-11.4c6.2-7.7,5.7-25.5,5.7-28.9V56.7c0-3.4,0.7-20.2-7.5-27.9
	c-6.9-8.9-20.5-9.8-23.3-9.8c-2.8,0-16.8,0-21.4,0c-4.6,0-5.2,3.6-5.2,5.2c0.1,1.7-1.1,8.5-4.2,11.6c-3.2,3-7.2,4.2-10.8,4.2H95.6
	c0,0-8.1,0.7-12.6-4c-4.3-4.1-4.2-10.2-4.2-10.2s-0.1-3.9-1.2-5c-1.1-1.1-3.3-1.9-6.2-1.9C69.8,18.9,52.1,19,52.1,19z"/>
</svg>
