<?xml version="1.0" encoding="utf-8"?>
<!-- Generator: Adobe Illustrator 23.1.1, SVG Export Plug-In . SVG Version: 6.00 Build 0)  -->
<svg version="1.1" id="Layer_1" xmlns="http://www.w3.org/2000/svg" xmlns:xlink="http://www.w3.org/1999/xlink" x="0px" y="0px"
	 width="200px" height="340px" viewBox="0 0 200 340" style="enable-background:new 0 0 200 340;" xml:space="preserve">
<style type="text/css">
	.st0{fill-rule:evenodd;clip-rule:evenodd;}
</style>
<path class="st0" d="M61,81.6c0,0-10.9,0-17.1,1.3c-6.6,1.3-12.5,5.3-15.8,10.6c-5.4,8.6-4.5,28.5-4.5,28.5l0,92
	c0,0-1.2,22.8,4,31.5c1.8,2.9,5.8,7.9,12.1,10.1c8.9,3.1,20.3,2.9,20.3,2.9l71,0.1c0,0,16.1,1.3,26.4-5.4c4.4-2.8,7.6-8.2,9.3-13.7
	c2.9-9.5,1.8-24.5,1.8-24.5l0-91c0,0,1-14.2-2.2-24.7c-1-3.4-3.1-6.4-4.4-8.1c-2.2-2.9-5.8-6.2-11.8-7.5c-8.6-2-19-2.1-19-2.1
	S61,81.6,61,81.6z"/>
</svg>
