<svg xmlns="http://www.w3.org/2000/svg" width="200" height="340"><path fill-rule="evenodd" d="M85.5 1c18.454-.098 57.754-.138 62.119 10 2.124 4.132 3.321 18.247 4.154 23.08 1.352 8.165 2.235 15.911 8.274 24.519 6.654 9.487 14.813 10.975 21.723 20.941 3.999 5.768 7.769 16.898 8.164 26.644.044 1.077-.244 2.178-.434 3.316.257-.41 1.498-.79 2.899-.793 2.135-.005 3.511.241 4.993 2.364 1.481 2.124 1.354 7.937 1.354 7.937l-.261 19.228s.414 4.76-1.338 7.08c-1.752 2.32-7.147 1.184-7.147 1.184V178c.12 1.416.618 1.3.609 2.787-.09 15.682-.172 42.135-.346 50.081-.235 10.698-3.227 20.096-6.763 26.632-4.412 8.154-10.175 11.879-17.593 17.722-3.864 3.043-7.883 8.326-9.965 13.34-1.669 4.02-3.528 12.729-4.668 21.457-.903 6.908-1.456 13.788-3.067 18.263-.817 2.268-2.028 3.726-3.169 4.512-6.619 4.562-20.52 6.562-48.108 6.562-29.602 0-43.926-2.192-50.83-6.96-3.39-2.34-3.889-11.086-5.357-23.56-1.172-9.956-4.673-20.77-7.164-24.914-5.81-9.666-12.029-11.459-18.652-17.844C10.272 261.592 6.62 255.133 4 246.5c-3-9.884-2.748-33-2.748-33V126C1.252 97.78 3.72 93.015 6 87.5c2.28-5.515 5.983-11.245 10.695-15.076 7.672-6.239 13.896-9.995 18.297-18.544 1.897-3.686 4.244-12.133 5.471-20.457C42.077 22.467 42.47 11.329 46.5 8.5c8.069-5.665 24.376-6.748 26.365-6.819C74.855 1.61 82.667 1.167 85.5 1zM61 81.58s-10.853.043-17.052 1.303C37.336 84.227 31.4 88.205 28.12 93.5c-5.351 8.637-4.499 28.5-4.499 28.5l-.01 92s-1.215 22.847 4.009 31.5c1.773 2.937 5.781 7.904 12.085 10.1C48.573 258.688 60 258.477 60 258.477l71 .083s16.125 1.294 26.4-5.387c4.371-2.842 7.65-8.175 9.298-13.665 2.861-9.531 1.797-24.508 1.797-24.508l.014-91s.953-14.238-2.244-24.688c-1.031-3.371-3.068-6.405-4.4-8.146-2.197-2.871-5.774-6.159-11.839-7.538C141.44 81.676 131 81.574 131 81.574l-70 .006z"/></svg>